<svg width="16" height="16" viewBox="0 0 16 16" fill="none" xmlns="http://www.w3.org/2000/svg">
<path d="M5.06479 4.21578C4.83048 3.98146 4.45058 3.98146 4.21626 4.21578C3.98195 4.45009 3.98195 4.82999 4.21626 5.0643L7.15169 7.99973L4.21681 10.9346C3.98249 11.1689 3.98249 11.5488 4.21681 11.7831C4.45112 12.0175 4.83102 12.0175 5.06533 11.7831L8.00021 8.84825L10.9351 11.7831C11.1694 12.0175 11.5493 12.0175 11.7836 11.7831C12.0179 11.5488 12.0179 11.1689 11.7836 10.9346L8.84874 7.99973L11.7842 5.0643C12.0185 4.82999 12.0185 4.45009 11.7842 4.21577C11.5499 3.98146 11.17 3.98146 10.9356 4.21577L8.00021 7.1512L5.06479 4.21578Z" fill="#676879"/>
</svg>
