<svg width="32" height="32" viewBox="0 0 32 32" fill="none" xmlns="http://www.w3.org/2000/svg">
<path d="M21.3335 4.30675C22.2802 3.21341 23.4802 2.66675 24.9335 2.66675C26.1468 2.66675 27.1602 3.10675 28.0002 4.00008C28.8402 4.89341 29.2802 5.90675 29.3335 7.06675C29.3335 8.00008 28.8935 9.08008 28.0002 10.3467C27.1068 11.6134 26.2402 12.6667 25.3735 13.5334C24.5068 14.3867 23.1602 15.6534 21.3335 17.3334C19.4802 15.6534 18.1202 14.3867 17.2535 13.5334C16.3868 12.6801 15.5068 11.6134 14.6268 10.3467C13.7468 9.08008 13.3335 8.00008 13.3335 7.06675C13.3335 5.85342 13.7602 4.84008 14.6268 4.00008C15.4935 3.16008 16.5335 2.72008 17.7468 2.66675C19.1735 2.66675 20.3602 3.21341 21.3335 4.30675ZM29.3335 25.3334V26.6667L18.6668 30.0001L9.3335 27.4134V29.3334H1.3335V14.6667H11.9602L20.1735 17.7334C21.6668 18.2934 22.6668 19.7334 22.6668 21.3334H25.3335C27.5468 21.3334 29.3335 23.1201 29.3335 25.3334ZM6.66683 26.6667V17.3334H4.00016V26.6667H6.66683ZM26.5335 24.7601C26.3202 24.3201 25.8535 24.0001 25.3335 24.0001H18.2002C17.4802 24.0001 16.7735 23.8934 16.0935 23.6667L12.9202 22.6134L13.7602 20.0801L16.9335 21.1334C17.3335 21.2667 20.0002 21.3334 20.0002 21.3334C20.0002 20.8401 19.6935 20.4001 19.2402 20.2267L11.4802 17.3334H9.3335V24.6667L18.6268 27.2134L26.5335 24.7601Z" fill="white"/>
</svg>
