<svg width="24" height="30" viewBox="0 0 24 30" fill="none" xmlns="http://www.w3.org/2000/svg">
<path d="M21.3333 2.66667V26.6667H13.3333V22H10.6667V26.6667H2.66667V2.66667H21.3333ZM16 8H18.6667V5.33333H16V8ZM10.6667 8H13.3333V5.33333H10.6667V8ZM5.33333 8H8V5.33333H5.33333V8ZM16 13.3333H18.6667V10.6667H16V13.3333ZM10.6667 13.3333H13.3333V10.6667H10.6667V13.3333ZM5.33333 13.3333H8V10.6667H5.33333V13.3333ZM16 18.6667H18.6667V16H16V18.6667ZM10.6667 18.6667H13.3333V16H10.6667V18.6667ZM5.33333 18.6667H8V16H5.33333V18.6667ZM16 24H18.6667V21.3333H16V24ZM5.33333 24H8V21.3333H5.33333V24ZM24 0H0V29.3333H24V0Z" fill="#676879"/>
</svg>
