<svg width="24" height="30" viewBox="0 0 24 30" fill="none" xmlns="http://www.w3.org/2000/svg">
<path d="M12 0L24 5.33333V13.3333C24 20.7333 18.88 27.6533 12 29.3333C5.12 27.6533 0 20.7333 0 13.3333V5.33333L12 0ZM12 2.90667L2.66667 7.06667V13.6267C2.66667 19.3867 7 25.3333 12 26.6667C17 25.3333 21.3333 19.3867 21.3333 13.6267V7.06667L12 2.90667ZM17.3333 17.3333V19.3333V19.4533C17.28 19.7467 17.04 19.9467 16.7067 20H16.5733H7.42667H7.29333C6.96 19.9467 6.72 19.7467 6.66667 19.4533V19.3333V17.3333H17.3333ZM18.6667 9.33333L17.3333 16H6.66667L5.33333 9.33333L8.89333 12.8933L12 9.78667L15.1067 12.8933L18.6667 9.33333Z" fill="#676879"/>
</svg>
